<svg xmlns="http://www.w3.org/2000/svg" width="860" height="320" viewBox="0 0 860 320">
<rect width="100%" height="100%" fill="#ffffff"/>
<text x="62" y="24" font-size="16" font-weight="700" fill="#0f172a">Cumulative Energy vs Code Sample Number</text>
<rect x="62" y="12" width="14" height="14" fill="#2563eb" rx="2" /><text x="84" y="24" font-size="12" fill="#0f172a">Cumulative energy (mJ)</text>
<line x1="62" y1="268.00" x2="836" y2="268.00" stroke="#dbe4ee" stroke-width="1" /><text x="10" y="272.00" font-size="11" fill="#64748b">0.00</text><line x1="62" y1="210.00" x2="836" y2="210.00" stroke="#dbe4ee" stroke-width="1" /><text x="10" y="214.00" font-size="11" fill="#64748b">1478.62</text><line x1="62" y1="152.00" x2="836" y2="152.00" stroke="#dbe4ee" stroke-width="1" /><text x="10" y="156.00" font-size="11" fill="#64748b">2957.25</text><line x1="62" y1="94.00" x2="836" y2="94.00" stroke="#dbe4ee" stroke-width="1" /><text x="10" y="98.00" font-size="11" fill="#64748b">4435.87</text><line x1="62" y1="36.00" x2="836" y2="36.00" stroke="#dbe4ee" stroke-width="1" /><text x="10" y="40.00" font-size="11" fill="#64748b">5914.49</text>
<line x1="62" y1="268" x2="836" y2="268" stroke="#94a3b8" stroke-width="1.5"/>
<line x1="62" y1="36" x2="62" y2="268" stroke="#94a3b8" stroke-width="1.5"/>
<polyline fill="none" stroke="#2563eb" stroke-width="3" points="62.00,267.95 88.69,267.89 115.38,266.12 142.07,222.59 168.76,188.05 195.45,130.76 222.14,130.70 248.83,130.64 275.52,96.10 302.21,96.04 328.90,95.98 355.59,95.93 382.28,93.91 408.97,91.90 435.66,90.13 462.34,88.37 489.03,86.61 515.72,84.85 542.41,83.10 569.10,83.04 595.79,81.26 622.48,79.50 649.17,77.73 675.86,75.96 702.55,74.20 729.24,74.14 755.93,72.36 782.62,70.60 809.31,36.06 836.00,36.00" /><circle cx="62.00" cy="267.95" r="4.5" fill="#2563eb" /><circle cx="88.69" cy="267.89" r="4.5" fill="#2563eb" /><circle cx="115.38" cy="266.12" r="4.5" fill="#2563eb" /><circle cx="142.07" cy="222.59" r="4.5" fill="#2563eb" /><circle cx="168.76" cy="188.05" r="4.5" fill="#2563eb" /><circle cx="195.45" cy="130.76" r="4.5" fill="#2563eb" /><circle cx="222.14" cy="130.70" r="4.5" fill="#2563eb" /><circle cx="248.83" cy="130.64" r="4.5" fill="#2563eb" /><circle cx="275.52" cy="96.10" r="4.5" fill="#2563eb" /><circle cx="302.21" cy="96.04" r="4.5" fill="#2563eb" /><circle cx="328.90" cy="95.98" r="4.5" fill="#2563eb" /><circle cx="355.59" cy="95.93" r="4.5" fill="#2563eb" /><circle cx="382.28" cy="93.91" r="4.5" fill="#2563eb" /><circle cx="408.97" cy="91.90" r="4.5" fill="#2563eb" /><circle cx="435.66" cy="90.13" r="4.5" fill="#2563eb" /><circle cx="462.34" cy="88.37" r="4.5" fill="#2563eb" /><circle cx="489.03" cy="86.61" r="4.5" fill="#2563eb" /><circle cx="515.72" cy="84.85" r="4.5" fill="#2563eb" /><circle cx="542.41" cy="83.10" r="4.5" fill="#2563eb" /><circle cx="569.10" cy="83.04" r="4.5" fill="#2563eb" /><circle cx="595.79" cy="81.26" r="4.5" fill="#2563eb" /><circle cx="622.48" cy="79.50" r="4.5" fill="#2563eb" /><circle cx="649.17" cy="77.73" r="4.5" fill="#2563eb" /><circle cx="675.86" cy="75.96" r="4.5" fill="#2563eb" /><circle cx="702.55" cy="74.20" r="4.5" fill="#2563eb" /><circle cx="729.24" cy="74.14" r="4.5" fill="#2563eb" /><circle cx="755.93" cy="72.36" r="4.5" fill="#2563eb" /><circle cx="782.62" cy="70.60" r="4.5" fill="#2563eb" /><circle cx="809.31" cy="36.06" r="4.5" fill="#2563eb" /><circle cx="836.00" cy="36.00" r="4.5" fill="#2563eb" />
<text x="62.00" y="300" text-anchor="middle" font-size="11" fill="#64748b">Run 1</text><text x="88.69" y="300" text-anchor="middle" font-size="11" fill="#64748b">Run 2</text><text x="115.38" y="300" text-anchor="middle" font-size="11" fill="#64748b">Run 3</text><text x="142.07" y="300" text-anchor="middle" font-size="11" fill="#64748b">Run 4</text><text x="168.76" y="300" text-anchor="middle" font-size="11" fill="#64748b">Run 5</text><text x="195.45" y="300" text-anchor="middle" font-size="11" fill="#64748b">Run 6</text><text x="222.14" y="300" text-anchor="middle" font-size="11" fill="#64748b">Run 7</text><text x="248.83" y="300" text-anchor="middle" font-size="11" fill="#64748b">Run 8</text><text x="275.52" y="300" text-anchor="middle" font-size="11" fill="#64748b">Run 9</text><text x="302.21" y="300" text-anchor="middle" font-size="11" fill="#64748b">Run 10</text><text x="328.90" y="300" text-anchor="middle" font-size="11" fill="#64748b">Run 11</text><text x="355.59" y="300" text-anchor="middle" font-size="11" fill="#64748b">Run 12</text><text x="382.28" y="300" text-anchor="middle" font-size="11" fill="#64748b">Run 13</text><text x="408.97" y="300" text-anchor="middle" font-size="11" fill="#64748b">Run 14</text><text x="435.66" y="300" text-anchor="middle" font-size="11" fill="#64748b">Run 15</text><text x="462.34" y="300" text-anchor="middle" font-size="11" fill="#64748b">Run 16</text><text x="489.03" y="300" text-anchor="middle" font-size="11" fill="#64748b">Run 17</text><text x="515.72" y="300" text-anchor="middle" font-size="11" fill="#64748b">Run 18</text><text x="542.41" y="300" text-anchor="middle" font-size="11" fill="#64748b">Run 19</text><text x="569.10" y="300" text-anchor="middle" font-size="11" fill="#64748b">Run 20</text><text x="595.79" y="300" text-anchor="middle" font-size="11" fill="#64748b">Run 21</text><text x="622.48" y="300" text-anchor="middle" font-size="11" fill="#64748b">Run 22</text><text x="649.17" y="300" text-anchor="middle" font-size="11" fill="#64748b">Run 23</text><text x="675.86" y="300" text-anchor="middle" font-size="11" fill="#64748b">Run 24</text><text x="702.55" y="300" text-anchor="middle" font-size="11" fill="#64748b">Run 25</text><text x="729.24" y="300" text-anchor="middle" font-size="11" fill="#64748b">Run 26</text><text x="755.93" y="300" text-anchor="middle" font-size="11" fill="#64748b">Run 27</text><text x="782.62" y="300" text-anchor="middle" font-size="11" fill="#64748b">Run 28</text><text x="809.31" y="300" text-anchor="middle" font-size="11" fill="#64748b">Run 29</text><text x="836.00" y="300" text-anchor="middle" font-size="11" fill="#64748b">Run 30</text>
</svg>