<svg xmlns="http://www.w3.org/2000/svg" width="860" height="320" viewBox="0 0 860 320">
<rect width="100%" height="100%" fill="#ffffff"/>
<text x="62" y="24" font-size="16" font-weight="700" fill="#0f172a">Cumulative Energy vs Code Sample Number</text>
<rect x="62" y="12" width="14" height="14" fill="#2563eb" rx="2" /><text x="84" y="24" font-size="12" fill="#0f172a">Cumulative energy (mJ)</text>
<line x1="62" y1="268.00" x2="836" y2="268.00" stroke="#dbe4ee" stroke-width="1" /><text x="10" y="272.00" font-size="11" fill="#64748b">0.00</text><line x1="62" y1="210.00" x2="836" y2="210.00" stroke="#dbe4ee" stroke-width="1" /><text x="10" y="214.00" font-size="11" fill="#64748b">875.05</text><line x1="62" y1="152.00" x2="836" y2="152.00" stroke="#dbe4ee" stroke-width="1" /><text x="10" y="156.00" font-size="11" fill="#64748b">1750.09</text><line x1="62" y1="94.00" x2="836" y2="94.00" stroke="#dbe4ee" stroke-width="1" /><text x="10" y="98.00" font-size="11" fill="#64748b">2625.14</text><line x1="62" y1="36.00" x2="836" y2="36.00" stroke="#dbe4ee" stroke-width="1" /><text x="10" y="40.00" font-size="11" fill="#64748b">3500.19</text>
<line x1="62" y1="268" x2="836" y2="268" stroke="#94a3b8" stroke-width="1.5"/>
<line x1="62" y1="36" x2="62" y2="268" stroke="#94a3b8" stroke-width="1.5"/>
<polyline fill="none" stroke="#2563eb" stroke-width="3" points="62.00,267.91 191.00,267.81 320.00,264.82 449.00,191.27 578.00,132.91 707.00,36.10 836.00,36.00" /><circle cx="62.00" cy="267.91" r="4.5" fill="#2563eb" /><circle cx="191.00" cy="267.81" r="4.5" fill="#2563eb" /><circle cx="320.00" cy="264.82" r="4.5" fill="#2563eb" /><circle cx="449.00" cy="191.27" r="4.5" fill="#2563eb" /><circle cx="578.00" cy="132.91" r="4.5" fill="#2563eb" /><circle cx="707.00" cy="36.10" r="4.5" fill="#2563eb" /><circle cx="836.00" cy="36.00" r="4.5" fill="#2563eb" />
<text x="62.00" y="300" text-anchor="middle" font-size="11" fill="#64748b">Run 1</text><text x="191.00" y="300" text-anchor="middle" font-size="11" fill="#64748b">Run 2</text><text x="320.00" y="300" text-anchor="middle" font-size="11" fill="#64748b">Run 3</text><text x="449.00" y="300" text-anchor="middle" font-size="11" fill="#64748b">Run 4</text><text x="578.00" y="300" text-anchor="middle" font-size="11" fill="#64748b">Run 5</text><text x="707.00" y="300" text-anchor="middle" font-size="11" fill="#64748b">Run 6</text><text x="836.00" y="300" text-anchor="middle" font-size="11" fill="#64748b">Run 7</text>
</svg>