<svg xmlns="http://www.w3.org/2000/svg" width="860" height="320" viewBox="0 0 860 320">
<rect width="100%" height="100%" fill="#ffffff"/>
<text x="62" y="24" font-size="16" font-weight="700" fill="#0f172a">Cumulative Energy by LOC Range</text>
<line x1="62" y1="246.00" x2="836" y2="246.00" stroke="#dbe4ee" stroke-width="1" /><text x="10" y="250.00" font-size="11" fill="#64748b">0.00</text><line x1="62" y1="193.50" x2="836" y2="193.50" stroke="#dbe4ee" stroke-width="1" /><text x="10" y="197.50" font-size="11" fill="#64748b">365.13</text><line x1="62" y1="141.00" x2="836" y2="141.00" stroke="#dbe4ee" stroke-width="1" /><text x="10" y="145.00" font-size="11" fill="#64748b">730.27</text><line x1="62" y1="88.50" x2="836" y2="88.50" stroke="#dbe4ee" stroke-width="1" /><text x="10" y="92.50" font-size="11" fill="#64748b">1095.40</text><line x1="62" y1="36.00" x2="836" y2="36.00" stroke="#dbe4ee" stroke-width="1" /><text x="10" y="40.00" font-size="11" fill="#64748b">1460.54</text>
<line x1="62" y1="246" x2="836" y2="246" stroke="#94a3b8" stroke-width="1.5"/>
<line x1="62" y1="36" x2="62" y2="246" stroke="#94a3b8" stroke-width="1.5"/>
<rect x="78.00" y="245.37" width="135.60" height="0.63" fill="#15803d" rx="6" /><text x="145.80" y="237.37" text-anchor="middle" font-size="11" fill="#0f172a">4.35</text><rect x="229.60" y="239.50" width="135.60" height="6.50" fill="#15803d" rx="6" /><text x="297.40" y="231.50" text-anchor="middle" font-size="11" fill="#0f172a">45.21</text><rect x="381.20" y="86.46" width="135.60" height="159.54" fill="#15803d" rx="6" /><text x="449.00" y="78.46" text-anchor="middle" font-size="11" fill="#0f172a">1109.56</text><rect x="532.80" y="119.40" width="135.60" height="126.60" fill="#15803d" rx="6" /><text x="600.60" y="111.40" text-anchor="middle" font-size="11" fill="#0f172a">880.53</text><rect x="684.40" y="36.00" width="135.60" height="210.00" fill="#15803d" rx="6" /><text x="752.20" y="28.00" text-anchor="middle" font-size="11" fill="#0f172a">1460.54</text>
<text x="145.80" y="290" text-anchor="middle" font-size="11" fill="#64748b">0-20 LOC</text><text x="297.40" y="290" text-anchor="middle" font-size="11" fill="#64748b">20-50 LOC</text><text x="449.00" y="290" text-anchor="middle" font-size="11" fill="#64748b">51-100 LOC</text><text x="600.60" y="290" text-anchor="middle" font-size="11" fill="#64748b">101-200 LOC</text><text x="752.20" y="290" text-anchor="middle" font-size="11" fill="#64748b">200-500 LOC</text>
</svg>