<svg xmlns="http://www.w3.org/2000/svg" width="860" height="320" viewBox="0 0 860 320">
<rect width="100%" height="100%" fill="#ffffff"/>
<text x="62" y="24" font-size="16" font-weight="700" fill="#0f172a">Energy Consumption by LOC Range</text>
<line x1="62" y1="246.00" x2="836" y2="246.00" stroke="#dbe4ee" stroke-width="1" /><text x="10" y="250.00" font-size="11" fill="#64748b">0.00</text><line x1="62" y1="193.50" x2="836" y2="193.50" stroke="#dbe4ee" stroke-width="1" /><text x="10" y="197.50" font-size="11" fill="#64748b">20.86</text><line x1="62" y1="141.00" x2="836" y2="141.00" stroke="#dbe4ee" stroke-width="1" /><text x="10" y="145.00" font-size="11" fill="#64748b">41.72</text><line x1="62" y1="88.50" x2="836" y2="88.50" stroke="#dbe4ee" stroke-width="1" /><text x="10" y="92.50" font-size="11" fill="#64748b">62.58</text><line x1="62" y1="36.00" x2="836" y2="36.00" stroke="#dbe4ee" stroke-width="1" /><text x="10" y="40.00" font-size="11" fill="#64748b">83.44</text>
<line x1="62" y1="246" x2="836" y2="246" stroke="#94a3b8" stroke-width="1.5"/>
<line x1="62" y1="36" x2="62" y2="246" stroke="#94a3b8" stroke-width="1.5"/>
<rect x="78.00" y="237.60" width="135.60" height="8.40" fill="#2563eb" rx="6" /><text x="145.80" y="229.60" text-anchor="middle" font-size="11" fill="#0f172a">3.34</text><rect x="229.60" y="225.00" width="135.60" height="21.00" fill="#2563eb" rx="6" /><text x="297.40" y="217.00" text-anchor="middle" font-size="11" fill="#0f172a">8.34</text><rect x="381.20" y="204.00" width="135.60" height="42.00" fill="#2563eb" rx="6" /><text x="449.00" y="196.00" text-anchor="middle" font-size="11" fill="#0f172a">16.69</text><rect x="532.80" y="162.00" width="135.60" height="84.00" fill="#2563eb" rx="6" /><text x="600.60" y="154.00" text-anchor="middle" font-size="11" fill="#0f172a">33.37</text><rect x="684.40" y="36.00" width="135.60" height="210.00" fill="#2563eb" rx="6" /><text x="752.20" y="28.00" text-anchor="middle" font-size="11" fill="#0f172a">83.44</text>
<text x="145.80" y="290" text-anchor="middle" font-size="11" fill="#64748b">0-20</text><text x="297.40" y="290" text-anchor="middle" font-size="11" fill="#64748b">20-50</text><text x="449.00" y="290" text-anchor="middle" font-size="11" fill="#64748b">51-100</text><text x="600.60" y="290" text-anchor="middle" font-size="11" fill="#64748b">101-200</text><text x="752.20" y="290" text-anchor="middle" font-size="11" fill="#64748b">200-500</text>
</svg>