<svg xmlns="http://www.w3.org/2000/svg" width="860" height="320" viewBox="0 0 860 320">
<rect width="100%" height="100%" fill="#ffffff"/>
<text x="62" y="24" font-size="16" font-weight="700" fill="#0f172a">Current Hotspot Scores</text>
<line x1="62" y1="246.00" x2="836" y2="246.00" stroke="#dbe4ee" stroke-width="1" /><text x="10" y="250.00" font-size="11" fill="#64748b">0.00</text><line x1="62" y1="193.50" x2="836" y2="193.50" stroke="#dbe4ee" stroke-width="1" /><text x="10" y="197.50" font-size="11" fill="#64748b">3.68</text><line x1="62" y1="141.00" x2="836" y2="141.00" stroke="#dbe4ee" stroke-width="1" /><text x="10" y="145.00" font-size="11" fill="#64748b">7.36</text><line x1="62" y1="88.50" x2="836" y2="88.50" stroke="#dbe4ee" stroke-width="1" /><text x="10" y="92.50" font-size="11" fill="#64748b">11.04</text><line x1="62" y1="36.00" x2="836" y2="36.00" stroke="#dbe4ee" stroke-width="1" /><text x="10" y="40.00" font-size="11" fill="#64748b">14.72</text>
<line x1="62" y1="246" x2="836" y2="246" stroke="#94a3b8" stroke-width="1.5"/>
<line x1="62" y1="36" x2="62" y2="246" stroke="#94a3b8" stroke-width="1.5"/>
<rect x="78.00" y="36.00" width="236.67" height="210.00" fill="#d97706" rx="6" /><text x="196.33" y="28.00" text-anchor="middle" font-size="11" fill="#0f172a">14.72</text><rect x="330.67" y="115.04" width="236.67" height="130.96" fill="#d97706" rx="6" /><text x="449.00" y="107.04" text-anchor="middle" font-size="11" fill="#0f172a">9.18</text><rect x="583.33" y="120.46" width="236.67" height="125.54" fill="#d97706" rx="6" /><text x="701.67" y="112.46" text-anchor="middle" font-size="11" fill="#0f172a">8.80</text>
<text x="196.33" y="290" text-anchor="middle" font-size="11" fill="#64748b">greet</text><text x="449.00" y="290" text-anchor="middle" font-size="11" fill="#64748b">calculate</text><text x="701.67" y="290" text-anchor="middle" font-size="11" fill="#64748b">greet:entry</text>
</svg>